<svg xmlns="http://www.w3.org/2000/svg" viewBox="0 0 820 470" width="820" height="470" role="img" aria-label="Aukora spatial map (DEMO_FIXTURE)"><rect x="0" y="0" width="820" height="470" rx="12" fill="#0e1116" stroke="#262d38"/><text x="16" y="26" font-family="system-ui,sans-serif" font-size="13" font-weight="700" fill="#8a93a3">AUKORA SPATIAL MAP · DEMO_FIXTURE · 17 nodes / 17 edges</text><g><line x1="380" y1="235" x2="380" y2="66" stroke="#38404d" opacity="0.7" stroke-width="1.2"/><line x1="380" y1="235" x2="170" y2="360" stroke="#38404d" opacity="0.7" stroke-width="1.2"/><line x1="380" y1="235" x2="560" y2="150" stroke="#38404d" opacity="0.7" stroke-width="1.2"/><line x1="560" y1="150" x2="680" y2="44" stroke="#262d38" opacity="0.6" stroke-width="1.2"/><line x1="560" y1="150" x2="680" y2="101.14285714285714" stroke="#262d38" opacity="0.6" stroke-width="1.2"/><line x1="560" y1="150" x2="680" y2="158.28571428571428" stroke="#262d38" opacity="0.6" stroke-width="1.2"/><line x1="560" y1="150" x2="680" y2="215.42857142857144" stroke="#262d38" opacity="0.6" stroke-width="1.2"/><line x1="560" y1="150" x2="680" y2="272.57142857142856" stroke="#262d38" opacity="0.6" stroke-width="1.2"/><line x1="560" y1="150" x2="680" y2="329.7142857142857" stroke="#262d38" opacity="0.6" stroke-width="1.2"/><line x1="560" y1="150" x2="680" y2="386.8571428571429" stroke="#262d38" opacity="0.6" stroke-width="1.2"/><line x1="560" y1="150" x2="680" y2="444" stroke="#262d38" opacity="0.6" stroke-width="1.2"/><line x1="380" y1="235" x2="230" y2="428" stroke="#38404d" opacity="0.7" stroke-width="1.2"/><line x1="230" y1="428" x2="326" y2="428" stroke="#38404d" opacity="0.7" stroke-width="1.2"/><line x1="326" y1="428" x2="422" y2="428" stroke="#38404d" opacity="0.7" stroke-width="1.2"/><line x1="422" y1="428" x2="518" y2="428" stroke="#38404d" opacity="0.7" stroke-width="1.2"/><line x1="380" y1="66" x2="170" y2="132" stroke="#e2b04a" stroke-dasharray="4 3" opacity="0.85" stroke-width="1.2"/><line x1="170" y1="132" x2="422" y2="428" stroke="#57d08c" stroke-dasharray="4 3" opacity="0.85" stroke-width="1.2"/></g><g><circle cx="380" cy="235" r="26" fill="#6ea0ff" stroke="#161b22" stroke-width="1.5"/><text x="380" y="239" text-anchor="middle" font-family="system-ui,sans-serif" font-size="13" font-weight="600" fill="#e8ecf2">AUMA</text><circle cx="380" cy="66" r="16" fill="#e2b04a" stroke="#161b22" stroke-width="1.5"/><text x="380" y="95" text-anchor="middle" font-family="system-ui,sans-serif" font-size="11" font-weight="600" fill="#b3bcc9">AUMLOK</text><circle cx="170" cy="360" r="14" fill="#9cc0ff" stroke="#161b22" stroke-width="1.5"/><text x="170" y="387" text-anchor="middle" font-family="system-ui,sans-serif" font-size="11" font-weight="600" fill="#b3bcc9">deterministic-offline-v0</text><circle cx="560" cy="150" r="18" fill="#57d08c" stroke="#161b22" stroke-width="1.5"/><text x="560" y="181" text-anchor="middle" font-family="system-ui,sans-serif" font-size="11" font-weight="600" fill="#b3bcc9">Fu council</text><circle cx="680" cy="44" r="9" fill="#8a93a3" stroke="#161b22" stroke-width="1.5"/><text x="680" y="66" text-anchor="middle" font-family="system-ui,sans-serif" font-size="10" font-weight="600" fill="#b3bcc9">Fable-5</text><circle cx="680" cy="101.14285714285714" r="9" fill="#8a93a3" stroke="#161b22" stroke-width="1.5"/><text x="680" y="123.14285714285714" text-anchor="middle" font-family="system-ui,sans-serif" font-size="10" font-weight="600" fill="#b3bcc9">Qwen-3.7</text><circle cx="680" cy="158.28571428571428" r="9" fill="#8a93a3" stroke="#161b22" stroke-width="1.5"/><text x="680" y="180.28571428571428" text-anchor="middle" font-family="system-ui,sans-serif" font-size="10" font-weight="600" fill="#b3bcc9">DeepSeek-V4</text><circle cx="680" cy="215.42857142857144" r="9" fill="#8a93a3" stroke="#161b22" stroke-width="1.5"/><text x="680" y="237.42857142857144" text-anchor="middle" font-family="system-ui,sans-serif" font-size="10" font-weight="600" fill="#b3bcc9">Kimi-K2.7</text><circle cx="680" cy="272.57142857142856" r="9" fill="#8a93a3" stroke="#161b22" stroke-width="1.5"/><text x="680" y="294.57142857142856" text-anchor="middle" font-family="system-ui,sans-serif" font-size="10" font-weight="600" fill="#b3bcc9">Mistral-Large</text><circle cx="680" cy="329.7142857142857" r="9" fill="#8a93a3" stroke="#161b22" stroke-width="1.5"/><text x="680" y="351.7142857142857" text-anchor="middle" font-family="system-ui,sans-serif" font-size="10" font-weight="600" fill="#b3bcc9">GPT-5.6-Sol</text><circle cx="680" cy="386.8571428571429" r="9" fill="#8a93a3" stroke="#161b22" stroke-width="1.5"/><text x="680" y="408.8571428571429" text-anchor="middle" font-family="system-ui,sans-serif" font-size="10" font-weight="600" fill="#b3bcc9">Gemini-3.5-Flash</text><circle cx="680" cy="444" r="9" fill="#8a93a3" stroke="#161b22" stroke-width="1.5"/><text x="680" y="466" text-anchor="middle" font-family="system-ui,sans-serif" font-size="10" font-weight="600" fill="#b3bcc9">Grok-4.5</text><circle cx="230" cy="428" r="11" fill="#9cc0ff" stroke="#161b22" stroke-width="1.5"/><text x="230" y="452" text-anchor="middle" font-family="system-ui,sans-serif" font-size="10" font-weight="600" fill="#b3bcc9">memory #0</text><circle cx="326" cy="428" r="11" fill="#9cc0ff" stroke="#161b22" stroke-width="1.5"/><text x="326" y="452" text-anchor="middle" font-family="system-ui,sans-serif" font-size="10" font-weight="600" fill="#b3bcc9">memory #1</text><circle cx="422" cy="428" r="11" fill="#9cc0ff" stroke="#161b22" stroke-width="1.5"/><text x="422" y="452" text-anchor="middle" font-family="system-ui,sans-serif" font-size="10" font-weight="600" fill="#b3bcc9">memory #2</text><circle cx="518" cy="428" r="11" fill="#8a93a3" stroke="#161b22" stroke-width="1.5"/><text x="518" y="452" text-anchor="middle" font-family="system-ui,sans-serif" font-size="10" font-weight="600" fill="#b3bcc9">tombstone #3</text><circle cx="170" cy="132" r="14" fill="#6ea0ff" stroke="#161b22" stroke-width="1.5"/><text x="170" y="159" text-anchor="middle" font-family="system-ui,sans-serif" font-size="11" font-weight="600" fill="#b3bcc9">p1</text></g></svg>
